<svg xmlns="http://www.w3.org/2000/svg" xmlns:xlink="http://www.w3.org/1999/xlink" viewBox="0 0 1400 354"><defs><path id="a" d="M.1 0h1400v354H.1z"/></defs><clipPath id="b"><use xlink:href="#a" overflow="visible"/></clipPath><path clip-path="url(#b)" fill="#f8f8f8" d="M.1 0h1400v354H.1z"/><defs><path id="c" d="M.1 0h1400v354H.1z"/></defs><clipPath id="d"><use xlink:href="#c" overflow="visible"/></clipPath><path d="M1081 391.2c-6.6-3.8-8.9-12.4-5.1-19.1l39.6-68.6c3.8-6.6 12.4-8.9 19.1-5.1 6.6 3.8 8.9 12.4 5.1 19.1l-39.6 68.6c-3.8 6.7-12.4 9-19.1 5.1z" clip-path="url(#d)" fill="#00abc7"/><defs><path id="e" d="M.1 0h1400v354H.1z"/></defs><clipPath id="f"><use xlink:href="#e" overflow="visible"/></clipPath><path d="M417.5-51.6c3 1.8 4.1 5.7 2.3 8.7l-92.2 159.8c-1.8 3-5.7 4.1-8.7 2.3-3-1.8-4.1-5.7-2.3-8.7l92.2-159.8c1.7-3 5.7-4.1 8.7-2.3z" clip-path="url(#f)" fill="#ff9e18"/><defs><path id="g" d="M.1 0h1400v354H.1z"/></defs><clipPath id="h"><use xlink:href="#g" overflow="visible"/></clipPath><path d="M1098.6 236.9c-10.2-5.9-13.7-19.1-7.9-29.3l142.5-246.8c5.9-10.2 19.1-13.7 29.3-7.9 10.2 5.9 13.7 19.1 7.9 29.3L1127.9 229c-5.9 10.3-19.1 13.8-29.3 7.9z" clip-path="url(#h)" fill="#ff5c39"/><defs><path id="i" d="M.1 0h1400v354H.1z"/></defs><clipPath id="j"><use xlink:href="#i" overflow="visible"/></clipPath><path d="M988 326.3c-4.6-2.7-6.2-8.6-3.5-13.2l139.3-241.2c2.7-4.6 8.6-6.2 13.2-3.5s6.2 8.6 3.5 13.2l-139.3 241.2c-2.7 4.6-8.6 6.2-13.2 3.5z" clip-path="url(#j)" fill="#ff9e18"/><defs><path id="k" d="M.1 0h1400v354H.1z"/></defs><clipPath id="l"><use xlink:href="#k" overflow="visible"/></clipPath><circle cx="1149.8" cy="46.7" r="9.6" clip-path="url(#l)" fill="#ff9e18"/><defs><path id="m" d="M.1 0h1400v354H.1z"/></defs><clipPath id="n"><use xlink:href="#m" overflow="visible"/></clipPath><path d="M247.1 370.8c-2.6-1.5-3.5-4.9-2-7.5l34-58.9c1.5-2.6 4.9-3.5 7.5-2 2.6 1.5 3.5 4.9 2 7.5l-34 58.9c-1.5 2.6-4.9 3.5-7.5 2z" clip-path="url(#n)" fill="#058090"/><g><defs><path id="o" d="M.1 0h1400v354H.1z"/></defs><clipPath id="p"><use xlink:href="#o" overflow="visible"/></clipPath><path d="M210.1 107.5c-1.1-.7-1.5-2.1-.9-3.3L246.4 40c.7-1.1 2.1-1.5 3.3-.9 1.1.7 1.5 2.1.9 3.3l-37.2 64.2c-.7 1.2-2.2 1.6-3.3.9z" clip-path="url(#p)" fill="#058090"/></g><g><defs><path id="q" d="M.1 0h1400v354H.1z"/></defs><clipPath id="r"><use xlink:href="#q" overflow="visible"/></clipPath><path d="M1157.8 177.6c-2.2-1.2-2.9-4-1.7-6.2l113.5-196.3c1.2-2.2 4-2.9 6.2-1.7s2.9 4 1.7 6.2L1164 176c-1.2 2.1-4 2.9-6.2 1.6z" clip-path="url(#r)" fill="#00abc7"/></g><g><defs><path id="s" d="M.1 0h1400v354H.1z"/></defs><clipPath id="t"><use xlink:href="#s" overflow="visible"/></clipPath><path d="M117.5 435.2c-21.3-12.3-28.6-39.7-16.3-61l126.7-219.7c12.3-21.3 39.7-28.6 61-16.3 21.3 12.3 28.6 39.7 16.3 61L178.5 418.9c-12.2 21.3-39.7 28.6-61 16.3z" clip-path="url(#t)" fill="#00abc7"/></g><g><defs><path id="u" d="M.1 0h1400v354H.1z"/></defs><clipPath id="v"><use xlink:href="#u" overflow="visible"/></clipPath><path d="M1187.5 526.2c-53.2-30.7-71.6-99.4-40.9-152.6l317.1-549.7c30.7-53.2 99.4-71.6 152.6-40.9 53.2 30.7 71.6 99.4 40.9 152.6l-317.1 549.7c-30.7 53.2-99.3 71.6-152.6 40.9z" opacity=".25" clip-path="url(#v)" fill="#fff"/></g><g><defs><path id="w" d="M.1 0h1400v354H.1z"/></defs><clipPath id="x"><use xlink:href="#w" overflow="visible"/></clipPath><path d="M-162.2 477.3c-53.2-30.7-71.6-99.4-40.9-152.6L114-225c30.7-53.2 99.4-71.6 152.6-40.9 53.2 30.7 71.6 99.4 40.9 152.6L-9.6 436.5c-30.8 53.2-99.4 71.6-152.6 40.8z" opacity=".1" clip-path="url(#x)" fill="#00abc7"/></g><g><defs><path id="y" d="M.1 0h1400v354H.1z"/></defs><clipPath id="z"><use xlink:href="#y" overflow="visible"/></clipPath><path d="M273.1 76.9c5.3 3.1 7.2 9.9 4.1 15.3L174.4 269.9c-3.1 5.3-9.9 7.2-15.3 4.1-5.3-3.1-7.2-9.9-4.1-15.3L257.8 80.9c3.1-5.3 9.9-7.1 15.3-4z" opacity=".61" clip-path="url(#z)" fill="#fff"/></g><g><defs><path id="A" d="M.1 0h1400v354H.1z"/></defs><clipPath id="B"><use xlink:href="#A" overflow="visible"/></clipPath><path d="M1222.1-160.7c19.8 11.5 26.7 37.1 15.3 56.9L854.1 559.6c-11.5 19.8-37.1 26.7-56.9 15.3-19.8-11.5-26.7-37.1-15.3-56.9l383.3-663.3c11.4-20 37.1-26.8 56.9-15.4z" opacity=".25" clip-path="url(#B)" fill="#fff"/></g><g><defs><path id="C" d="M.1 0h1400v354H.1z"/></defs><clipPath id="D"><use xlink:href="#C" overflow="visible"/></clipPath><circle cx="144.3" cy="299.7" r="11.1" opacity=".61" clip-path="url(#D)" fill="#fff"/></g><g><defs><path id="E" d="M.1 0h1400v354H.1z"/></defs><clipPath id="F"><use xlink:href="#E" overflow="visible"/></clipPath><path d="M446.4-57.2c3.1 1.8 4.2 5.8 2.4 9L388.4 56.2c-1.8 3.1-5.8 4.2-9 2.4-3.1-1.8-4.2-5.8-2.4-9l60.3-104.4c1.9-3.1 5.9-4.2 9.1-2.4z" opacity=".15" clip-path="url(#F)" fill="#00abc7"/></g><g><defs><path id="G" d="M.1 0h1400v354H.1z"/></defs><clipPath id="H"><use xlink:href="#G" overflow="visible"/></clipPath><circle cx="370.8" cy="73.6" r="6.5" opacity=".15" clip-path="url(#H)" fill="#00abc7"/></g><g><defs><path id="I" d="M.1 0h1400v354H.1z"/></defs><clipPath id="J"><use xlink:href="#I" overflow="visible"/></clipPath><path d="M1209.2 145.2c4 2.3 5.3 7.4 3.1 11.4l-34.4 59.7c-2.3 4-7.4 5.3-11.4 3.1-4-2.3-5.3-7.4-3.1-11.4l34.4-59.7c2.3-4 7.4-5.4 11.4-3.1z" opacity=".61" clip-path="url(#J)" fill="#00abc7"/></g><g><defs><path id="K" d="M.1 0h1400v354H.1z"/></defs><clipPath id="L"><use xlink:href="#K" overflow="visible"/></clipPath><circle cx="1155.3" cy="238.6" r="8.3" opacity=".61" clip-path="url(#L)" fill="#00abc7"/></g><g><defs><path id="M" d="M.1 0h1400v354H.1z"/></defs><clipPath id="N"><use xlink:href="#M" overflow="visible"/></clipPath><path d="M317.6 215.9c-2.4-1.4-3.3-4.6-1.9-7l56-97.1c1.4-2.4 4.6-3.3 7-1.9 2.4 1.4 3.3 4.6 1.9 7l-56 97.1c-1.4 2.5-4.5 3.3-7 1.9z" clip-path="url(#N)" fill="#9cdee8"/></g></svg>